<?xml version="1.0" encoding="UTF-8" standalone="no"?>
<svg
   xmlns:dc="http://purl.org/dc/elements/1.1/"
   xmlns:cc="http://creativecommons.org/ns#"
   xmlns:rdf="http://www.w3.org/1999/02/22-rdf-syntax-ns#"
   xmlns:svg="http://www.w3.org/2000/svg"
   xmlns="http://www.w3.org/2000/svg"
   xmlns:sodipodi="http://sodipodi.sourceforge.net/DTD/sodipodi-0.dtd"
   xmlns:inkscape="http://www.inkscape.org/namespaces/inkscape"
   height="48"
   viewBox="0 96 960 960"
   width="48"
   version="1.1"
   id="svg4"
   sodipodi:docname="syringe_FILL1_wght400_GRAD0_opsz48.svg"
   inkscape:version="1.0 (4035a4fb49, 2020-05-01)">
  <metadata
     id="metadata10">
    <rdf:RDF>
      <cc:Work
         rdf:about="">
        <dc:format>image/svg+xml</dc:format>
        <dc:type
           rdf:resource="http://purl.org/dc/dcmitype/StillImage" />
      </cc:Work>
    </rdf:RDF>
  </metadata>
  <defs
     id="defs8" />
  <sodipodi:namedview
     inkscape:document-rotation="0"
     pagecolor="#ffffff"
     bordercolor="#666666"
     borderopacity="1"
     objecttolerance="10"
     gridtolerance="10"
     guidetolerance="10"
     inkscape:pageopacity="0"
     inkscape:pageshadow="2"
     inkscape:window-width="1564"
     inkscape:window-height="877"
     id="namedview6"
     showgrid="false"
     inkscape:zoom="17.708333"
     inkscape:cx="24"
     inkscape:cy="24"
     inkscape:window-x="0"
     inkscape:window-y="0"
     inkscape:window-maximized="0"
     inkscape:current-layer="svg4" />
  <path
     d="M149 536q-8-9-8-21.5t8-21.5l126-125-57-58-26 26q-9 9-21.5 9t-21.5-9q-8-8-8-20.5t8-21.5l94-94q9-9 21.5-9t21.5 9q8 9 8 21.5t-8 20.5l-26 27 57 57 126-127q9-8 21.5-8t21.5 8q8 9 8 21.5t-8 21.5l-34 34 86 85-114 112q-8 9-8 21.5t8 20.5q9 9 21.5 9t21.5-9l112-112 86 85-113 112q-9 9-9 21.5t9 21.5q8 8 20.5 8t20.5-9l113-113 85 85q18 17 17.5 42.5T791 699l-50 50 172 172h-84L699 791l-50 50q-17 17-42 17t-43-17L226 502l-34 34q-9 9-21.5 9t-21.5-9Z"
     id="path2"
     style="fill:#ffffff;fill-opacity:1" />
</svg>
